<svg width="380" height="289" viewBox="0 0 380 289" fill="none" xmlns="http://www.w3.org/2000/svg">
<path d="M188.027 281.796C188.027 284.556 185.79 286.795 183.029 286.796L5.02908 286.86C2.26695 286.861 0.0269636 284.622 0.0265699 281.86L0.000715023 100.424C0.000321614 97.6633 2.23749 95.425 4.9982 95.424L182.998 95.36C185.76 95.359 188 97.5978 188.001 100.36L188.027 281.796Z" fill="#F56960"/>
<path d="M141.245 104.293C164.153 104.289 182.724 122.856 182.724 145.764C182.724 168.673 164.153 187.248 141.245 187.252L139.775 187.253C116.054 187.257 96.825 168.032 96.825 144.312V120.302C96.825 111.465 103.988 104.301 112.825 104.299L141.245 104.293Z" fill="#09BC8A"/>
<path d="M94.8467 80.1259C94.8479 88.4101 88.1331 95.1259 79.8489 95.1259L15.6609 95.1259C7.37664 95.1259 0.659955 88.4102 0.658774 80.1259L0.647382 0.180702L79.8353 0.180702C88.1196 0.180702 94.8363 6.89643 94.8375 15.1807L94.8467 80.1259Z" fill="#1A1423"/>
<path d="M379.216 96L239.032 96C211.418 96 189.029 73.6142 189.025 46L189.018 -7.62939e-06L379.203 -7.62939e-06L379.216 96Z" fill="#034E39"/>
<path d="M188.417 287.719L48.0418 287.184C21.5324 287.083 0.121019 265.511 0.218264 239.002C0.315509 212.492 21.8845 191.084 48.394 191.185L138.769 191.53C166.383 191.635 188.687 214.106 188.585 241.72L188.417 287.719Z" fill="#034E39"/>
<rect width="39.1603" height="39.149" rx="19.5745" transform="matrix(-0.722727 0.691134 -0.696807 -0.717259 75.7089 48.0097)" fill="#F56960"/>
<path d="M282.765 272.902C282.735 281.186 275.994 287.876 267.71 287.845L188.523 287.543L188.529 285.837C188.72 233.819 231.044 191.811 283.062 192.009L282.765 272.902Z" fill="#09BC8A"/>
<path d="M297.474 288.198C289.19 288.2 282.474 281.485 282.474 273.201V192.01C335.599 191.999 379.25 235.057 379.25 288.182L297.474 288.198Z" fill="#09BC8A"/>
<path d="M93.2217 287.361L0.0400758 287.005L0.337206 206.006C0.367595 197.722 7.10791 191.032 15.3921 191.063L78.574 191.304C86.8582 191.336 93.5493 198.077 93.5189 206.361L93.2217 287.361Z" fill="#F8F6F7"/>
<path d="M379.072 192.044H280.224L280.224 96.002L379.072 96.002L379.072 192.044Z" fill="#F56960"/>
<rect width="62.0208" height="63.214" rx="30" transform="matrix(-0.999993 -0.00381077 0.00366827 -0.999993 361.414 174.452)" fill="#1A1423"/>
</svg>
