<svg width="290" height="289" viewBox="0 0 290 289" fill="none" xmlns="http://www.w3.org/2000/svg">
<rect width="93.0967" height="284.469" rx="46.5483" transform="matrix(-4.37114e-08 -1 1 -0.000201521 5.0127 288.154)" fill="#09BC8A"/>
<path d="M0.0126953 194.024L0.0126868 0.0201263C55.2411 0.00899666 100.013 44.7715 100.013 99.9999L100.013 194.004L0.0126953 194.024Z" fill="#F56960"/>
<path d="M98.4347 193L193.003 193C193.046 245.219 150.731 288 98.5116 288L98.4347 193Z" fill="#034E39"/>
<path d="M100.012 192L100.012 287.988L96.9996 287.989C43.9869 287.999 1.01164 245.033 1.01164 192.02L100.012 192Z" fill="#034E39"/>
<path d="M0.0126953 288.005L0.0126912 194L6.00649 193.999C57.9241 193.988 100.012 236.067 100.012 287.985L0.0126953 288.005Z" fill="#034E39"/>
<path d="M100.013 194L97.0126 97.02C150.032 97.0093 193.013 140.831 193.013 193.851L100.013 194Z" fill="#034E39"/>
<path d="M100.013 194L0.019516 194C0.00872723 140.428 43.4283 97 96.9999 97L99.993 97L100.013 194Z" fill="#09BC8A"/>
<rect x="85.1576" y="147.08" width="39" height="39" rx="19.5" transform="rotate(136.054 85.1576 147.08)" fill="white"/>
<rect x="262.158" y="241.08" width="39" height="39" rx="19.5" transform="rotate(136.054 262.158 241.08)" fill="#034E39"/>
<path d="M54.0701 213.184C67.8769 213.083 79.1498 224.193 79.2488 237.999L79.4681 268.574L47.4105 268.811C33.6038 268.913 22.3309 257.803 22.2318 243.996L22.0125 213.421L54.0701 213.184Z" fill="#F56960"/>
</svg>
