<svg width="381" height="290" viewBox="0 0 381 290" fill="none" xmlns="http://www.w3.org/2000/svg">
<path d="M188.992 282.794C188.992 285.554 186.755 287.793 183.995 287.794L5.9946 287.858C3.23247 287.859 0.99248 285.62 0.992087 282.858L0.966232 101.422C0.965838 98.6613 3.203 96.423 5.96372 96.422L183.964 96.358C186.726 96.357 188.966 98.5959 188.966 101.358L188.992 282.794Z" fill="#F56960"/>
<path d="M142.21 105.291C165.119 105.287 183.69 123.854 183.69 146.762V146.762C183.69 169.671 165.119 188.246 142.21 188.25L140.74 188.251C117.02 188.255 97.7904 169.03 97.7904 145.31V121.3C97.7904 112.463 104.954 105.299 113.79 105.297L142.21 105.291Z" fill="#09BC8A"/>
<path d="M95.8123 81.1239C95.8134 89.4081 89.0987 96.1239 80.8144 96.1239L16.6264 96.1239C8.34215 96.1239 1.62547 89.4081 1.62429 81.1239L1.6129 1.17869L80.8009 1.17869C89.0851 1.17869 95.8018 7.89442 95.803 16.1787L95.8123 81.1239Z" fill="#1A1423"/>
<path d="M380.182 96.998L239.997 96.998C212.383 96.998 189.994 74.6122 189.99 46.998L189.984 0.997978L380.168 0.997978L380.182 96.998Z" fill="#034E39"/>
<path d="M189.382 288.717L49.0073 288.182C22.4978 288.081 1.08647 266.509 1.18372 240V240C1.28096 213.49 22.85 192.082 49.3594 192.183L139.735 192.528C167.349 192.633 189.652 215.104 189.551 242.718L189.382 288.717Z" fill="#034E39"/>
<rect width="39.1603" height="39.149" rx="19.5745" transform="matrix(-0.722727 0.691134 -0.696807 -0.717259 76.6744 49.0077)" fill="#F56960"/>
<path d="M283.731 273.9C283.7 282.184 276.96 288.874 268.676 288.843L189.488 288.541L189.495 286.835C189.685 234.817 232.009 192.809 284.027 193.007V193.007L283.731 273.9Z" fill="#09BC8A"/>
<path d="M298.44 289.196C290.156 289.198 283.44 282.483 283.44 274.199V193.008V193.008C336.565 192.997 380.216 236.055 380.216 289.18V289.18L298.44 289.196Z" fill="#09BC8A"/>
<path d="M94.1873 288.359L1.00559 288.003L1.30272 207.004C1.33311 198.72 8.07343 192.03 16.3576 192.061L79.5395 192.302C87.8237 192.334 94.5148 199.075 94.4844 207.359L94.1873 288.359Z" fill="#F8F6F7"/>
<path d="M380.037 193.042H281.19L281.19 97L380.037 97L380.037 193.042Z" fill="#F56960"/>
<rect width="62.0208" height="63.214" rx="30" transform="matrix(-0.999993 -0.00381077 0.00366827 -0.999993 362.379 175.45)" fill="#1A1423"/>
</svg>
