<svg width="23" height="20" viewBox="0 0 23 20" fill="none" xmlns="http://www.w3.org/2000/svg">
<path d="M0 19.881C0 18.8924 -1.54876e-06 17.4984 0.101494 15.8079C0.416128 11.1614 0.639419 7.76063 2.86216 5.01229C3.96272 3.71987 5.35112 2.68869 6.92197 1.99703C12.9102 -1.07755 19.3957 0.138445 22.1462 0.820586C22.284 2.46484 22.3077 4.11627 22.2173 5.76364C22.2194 7.7765 21.901 9.7775 21.2734 11.6953C20.6954 13.548 19.6765 15.2417 18.2996 16.6383C15.8738 18.9121 12.8594 19.2384 8.15005 19.7327C5.44407 20.0297 2.71549 20.0793 0 19.881Z" fill="#31626D"/>
<path d="M16.7564 6.03064C16.5765 5.82165 16.3199 5.68923 16.0413 5.66154C15.7627 5.63385 15.484 5.71307 15.2645 5.88235C15.2645 5.88235 9.52996 10.6079 9.36757 10.7562L7.06363 8.86795C6.8228 8.67686 6.52168 8.57252 6.21107 8.57252C5.90045 8.57252 5.59934 8.67686 5.35851 8.86795C5.22178 8.97031 5.10752 9.09835 5.0225 9.24449C4.93749 9.39063 4.88344 9.5519 4.86357 9.71875C4.84369 9.8856 4.8584 10.0546 4.9068 10.2159C4.9552 10.3771 5.03633 10.5272 5.14537 10.6573L8.11918 14.2262C8.40509 14.5322 8.80147 14.7185 9.22528 14.7462C9.64908 14.7738 10.0674 14.6406 10.3927 14.3745L16.6549 7.36526C16.8405 7.1957 16.954 6.96441 16.9728 6.71723C16.9916 6.47004 16.9144 6.225 16.7564 6.03064Z" fill="#ECFFF9"/>
</svg>
