<svg width="25" height="26" viewBox="0 0 25 26" fill="none" xmlns="http://www.w3.org/2000/svg">
<path d="M8.74264 21.0797H15.0295C15.0377 21.7348 14.9902 22.3894 14.8874 23.0369C14.6033 24.7538 13.4193 25.6122 11.3355 25.6122H3.16614C2.74363 25.6333 2.32111 25.5711 1.92423 25.4294C1.52735 25.2877 1.16439 25.0696 0.857397 24.7882C0.564075 24.4858 0.33728 24.1291 0.190752 23.7395C0.0442238 23.35 -0.0189899 22.9357 0.00493748 22.5219V2.04996L0.25357 1.84393H2.24264C4.37379 1.84393 5.43936 2.94273 5.43936 5.14032V21.1759C6.62807 21.1118 7.72916 21.0797 8.74264 21.0797Z" fill="#30837F"/>
<path d="M24.0584 12.2207V25.5092C23.203 25.6587 22.3346 25.7277 21.4655 25.7152C20.5611 25.7243 19.6577 25.6553 18.766 25.5092V13.9719C18.766 12.667 18.2096 12.0146 17.0966 12.0146H16.5994C16.3152 10.8401 16.3152 9.61806 16.5994 8.44355C17.7822 8.33024 18.7909 8.27187 19.6185 8.27187H20.3289C20.8374 8.24619 21.3456 8.32813 21.818 8.51199C22.2904 8.69584 22.7156 8.97717 23.0639 9.33633C23.7292 10.0483 24.0608 11.0097 24.0584 12.2207ZM17.7005 3.49898C17.7002 2.83956 17.833 2.18642 18.0912 1.57608C18.9049 1.20101 19.8012 1.02418 20.7018 1.06102C21.5631 1.01812 22.4207 1.1958 23.1882 1.57608C23.7093 2.80852 23.7093 4.18943 23.1882 5.42187C22.5962 5.76524 21.7319 5.93693 20.5953 5.93693C19.4587 5.93693 18.618 5.76524 18.0734 5.42187C17.8213 4.81035 17.6946 4.15726 17.7005 3.49898V3.49898Z" fill="#30837F"/>
<path d="M16.5994 6.90525C16.5994 6.56188 16.5994 6.07772 16.6349 5.49055C16.745 3.8767 16.8231 2.69549 17.601 1.74092C17.9862 1.29202 18.472 0.93386 19.0218 0.693627C21.1174 -0.374264 23.3871 0.048086 24.3496 0.285014C24.3978 0.856111 24.4061 1.4297 24.3745 2.00188C24.3752 2.70101 24.2638 3.39601 24.0442 4.06212C23.8419 4.70563 23.4853 5.29388 23.0035 5.77899C22.1545 6.56875 21.0996 6.68206 19.4515 6.85375C18.5046 6.9569 17.5497 6.97414 16.5994 6.90525V6.90525Z" fill="#30837F"/>
<path d="M22.4636 2.09459C22.4006 2.022 22.3108 1.97601 22.2133 1.96639C22.1159 1.95677 22.0183 1.98428 21.9415 2.04308C21.9415 2.04308 19.9346 3.6844 19.8778 3.73591L19.0715 3.08007C18.9872 3.0137 18.8819 2.97746 18.7732 2.97746C18.6645 2.97746 18.5591 3.0137 18.4748 3.08007C18.4269 3.11562 18.387 3.16009 18.3572 3.21085C18.3275 3.26161 18.3085 3.31762 18.3016 3.37558C18.2946 3.43353 18.2998 3.49224 18.3167 3.54824C18.3337 3.60423 18.362 3.65638 18.4002 3.70157L19.4409 4.94115C19.541 5.04742 19.6797 5.11214 19.828 5.12174C19.9763 5.13134 20.1227 5.08508 20.2365 4.99266L22.4281 2.55814C22.493 2.49925 22.5327 2.41891 22.5393 2.33306C22.5459 2.2472 22.5189 2.16209 22.4636 2.09459Z" fill="#ECFFF9"/>
</svg>
